ISO-10303-21;
HEADER;
FILE_DESCRIPTION (( 'STEP AP214' ),
    '1' );
FILE_NAME ('RF_Copper_Antenna_Model.STEP',
    '2025-10-15T19:18:40',
    ( '' ),
    ( '' ),
    'SwSTEP 2.0',
    'SolidWorks 2024',
    '' );
FILE_SCHEMA (( 'AUTOMOTIVE_DESIGN' ));
ENDSEC;

DATA;
#1 = VECTOR ( 'NONE', #164, 100.0000000000000000 ) ;
#2 = CARTESIAN_POINT ( 'NONE',  ( -8.600000000000001421, 0.1999999999999996503, -0.4999999999999999445 ) ) ;
#3 = LINE ( 'NONE', #44, #41 ) ;
#4 = CARTESIAN_POINT ( 'NONE',  ( -8.600000000000001421, 0.000000000000000000, 0.5000000000000001110 ) ) ;
#5 = LINE ( 'NONE', #111, #69 ) ;
#6 = FACE_OUTER_BOUND ( 'NONE', #10, .T. ) ;
#7 = DIRECTION ( 'NONE',  ( 0.000000000000000000, -0.000000000000000000, 1.000000000000000000 ) ) ;
#8 = APPLICATION_PROTOCOL_DEFINITION ( 'draft international standard', 'automotive_design', 1998, #78 ) ;
#9 =( LENGTH_UNIT ( ) NAMED_UNIT ( * ) SI_UNIT ( .CENTI., .METRE. ) );
#10 = EDGE_LOOP ( 'NONE', ( #63, #26, #170, #106 ) ) ;
#11 = ADVANCED_BREP_SHAPE_REPRESENTATION ( 'RF_Copper_Antenna_Model', ( #180, #93 ), #154 ) ;
#12 = CARTESIAN_POINT ( 'NONE',  ( -8.600000000000001421, 0.1999999999999996503, -0.4999999999999999445 ) ) ;
#13 = VECTOR ( 'NONE', #129, 100.0000000000000000 ) ;
#14 = DIRECTION ( 'NONE',  ( 0.000000000000000000, 0.000000000000000000, -1.000000000000000000 ) ) ;
#15 = VECTOR ( 'NONE', #70, 100.0000000000000000 ) ;
#16 = LINE ( 'NONE', #140, #95 ) ;
#17 = ADVANCED_FACE ( 'NONE', ( #40 ), #156, .F. ) ;
#18 = CARTESIAN_POINT ( 'NONE',  ( 8.599999999999997868, 0.000000000000000000, -0.4999999999999999445 ) ) ;
#19 = DIRECTION ( 'NONE',  ( 0.000000000000000000, 0.000000000000000000, 1.000000000000000000 ) ) ;
#20 = CARTESIAN_POINT ( 'NONE',  ( 0.000000000000000000, 0.000000000000000000, 0.000000000000000000 ) ) ;
#21 = SURFACE_STYLE_USAGE ( .BOTH. , #107 ) ;
#22 = ORIENTED_EDGE ( 'NONE', *, *, #137, .T. ) ;
#23 = EDGE_LOOP ( 'NONE', ( #109, #80, #88, #187 ) ) ;
#24 = PLANE ( 'NONE',  #148 ) ;
#25 = EDGE_CURVE ( 'NONE', #62, #172, #72, .T. ) ;
#26 = ORIENTED_EDGE ( 'NONE', *, *, #52, .F. ) ;
#27 = CARTESIAN_POINT ( 'NONE',  ( -8.600000000000001421, 0.000000000000000000, -0.4999999999999999445 ) ) ;
#28 = DIRECTION ( 'NONE',  ( -1.000000000000000000, 0.000000000000000000, -0.000000000000000000 ) ) ;
#29 = AXIS2_PLACEMENT_3D ( 'NONE', #175, #32, #102 ) ;
#30 = CARTESIAN_POINT ( 'NONE',  ( -8.600000000000001421, 0.1999999999999996503, 0.5000000000000001110 ) ) ;
#31 = LINE ( 'NONE', #12, #50 ) ;
#32 = DIRECTION ( 'NONE',  ( -1.000000000000000000, 0.000000000000000000, 0.000000000000000000 ) ) ;
#33 = ADVANCED_FACE ( 'NONE', ( #58 ), #127, .F. ) ;
#34 =( GEOMETRIC_REPRESENTATION_CONTEXT ( 3 ) GLOBAL_UNCERTAINTY_ASSIGNED_CONTEXT ( ( #115 ) ) GLOBAL_UNIT_ASSIGNED_CONTEXT ( ( #9, #64, #150 ) ) REPRESENTATION_CONTEXT ( 'NONE', 'WORKASPACE' ) );
#35 = DIRECTION ( 'NONE',  ( 0.000000000000000000, -0.000000000000000000, 1.000000000000000000 ) ) ;
#36 = ORIENTED_EDGE ( 'NONE', *, *, #65, .T. ) ;
#37 = ORIENTED_EDGE ( 'NONE', *, *, #25, .F. ) ;
#38 = EDGE_LOOP ( 'NONE', ( #149, #151, #36, #53 ) ) ;
#39 = SHAPE_DEFINITION_REPRESENTATION ( #119, #11 ) ;
#40 = FACE_OUTER_BOUND ( 'NONE', #23, .T. ) ;
#41 = VECTOR ( 'NONE', #61, 100.0000000000000000 ) ;
#42 = MECHANICAL_DESIGN_GEOMETRIC_PRESENTATION_REPRESENTATION (  '', ( #173 ), #34 ) ;
#43 = FILL_AREA_STYLE_COLOUR ( '', #99 ) ;
#44 = CARTESIAN_POINT ( 'NONE',  ( -8.600000000000001421, 0.1999999999999996503, -0.4999999999999999445 ) ) ;
#45 = DIRECTION ( 'NONE',  ( -0.000000000000000000, -1.000000000000000000, -0.000000000000000000 ) ) ;
#46 = PLANE ( 'NONE',  #55 ) ;
#47 = EDGE_CURVE ( 'NONE', #172, #131, #31, .T. ) ;
#48 = CARTESIAN_POINT ( 'NONE',  ( 8.599999999999997868, 0.1999999999999996503, 0.5000000000000001110 ) ) ;
#49 = FACE_OUTER_BOUND ( 'NONE', #38, .T. ) ;
#50 = VECTOR ( 'NONE', #85, 100.0000000000000000 ) ;
#51 = VERTEX_POINT ( 'NONE', #67 ) ;
#52 = EDGE_CURVE ( 'NONE', #76, #51, #5, .T. ) ;
#53 = ORIENTED_EDGE ( 'NONE', *, *, #120, .T. ) ;
#54 = VERTEX_POINT ( 'NONE', #177 ) ;
#55 = AXIS2_PLACEMENT_3D ( 'NONE', #166, #84, #28 ) ;
#56 = CLOSED_SHELL ( 'NONE', ( #33, #17, #130, #101, #183, #186 ) ) ;
#57 = PLANE ( 'NONE',  #143 ) ;
#58 = FACE_OUTER_BOUND ( 'NONE', #74, .T. ) ;
#59 = DIRECTION ( 'NONE',  ( 1.000000000000000000, 0.000000000000000000, 0.000000000000000000 ) ) ;
#60 = LINE ( 'NONE', #27, #134 ) ;
#61 = DIRECTION ( 'NONE',  ( -0.000000000000000000, -1.000000000000000000, -0.000000000000000000 ) ) ;
#62 = VERTEX_POINT ( 'NONE', #97 ) ;
#63 = ORIENTED_EDGE ( 'NONE', *, *, #96, .T. ) ;
#64 =( NAMED_UNIT ( * ) PLANE_ANGLE_UNIT ( ) SI_UNIT ( $, .RADIAN. ) );
#65 = EDGE_CURVE ( 'NONE', #131, #76, #161, .T. ) ;
#66 = CARTESIAN_POINT ( 'NONE',  ( -8.600000000000001421, 0.1999999999999996503, -0.4999999999999999445 ) ) ;
#67 = CARTESIAN_POINT ( 'NONE',  ( -8.600000000000001421, 0.000000000000000000, 0.5000000000000001110 ) ) ;
#68 = EDGE_CURVE ( 'NONE', #104, #117, #16, .T. ) ;
#69 = VECTOR ( 'NONE', #45, 100.0000000000000000 ) ;
#70 = DIRECTION ( 'NONE',  ( -0.000000000000000000, -0.000000000000000000, -1.000000000000000000 ) ) ;
#71 = LINE ( 'NONE', #73, #15 ) ;
#72 = LINE ( 'NONE', #176, #125 ) ;
#73 = CARTESIAN_POINT ( 'NONE',  ( 8.599999999999997868, 0.000000000000000000, -0.4999999999999999445 ) ) ;
#74 = EDGE_LOOP ( 'NONE', ( #171, #138, #37, #77 ) ) ;
#75 = CARTESIAN_POINT ( 'NONE',  ( 0.000000000000000000, 0.000000000000000000, 0.000000000000000000 ) ) ;
#76 = VERTEX_POINT ( 'NONE', #124 ) ;
#77 = ORIENTED_EDGE ( 'NONE', *, *, #144, .T. ) ;
#78 = APPLICATION_CONTEXT ( 'automotive_design' ) ;
#79 = PRODUCT_RELATED_PRODUCT_CATEGORY ( 'part', '', ( #81 ) ) ;
#80 = ORIENTED_EDGE ( 'NONE', *, *, #123, .F. ) ;
#81 = PRODUCT ( 'RF_Copper_Antenna_Model', 'RF_Copper_Antenna_Model', '', ( #152 ) ) ;
#82 = CARTESIAN_POINT ( 'NONE',  ( 8.599999999999997868, 0.1999999999999996503, -0.4999999999999999445 ) ) ;
#83 = VECTOR ( 'NONE', #59, 100.0000000000000000 ) ;
#84 = DIRECTION ( 'NONE',  ( 0.000000000000000000, 0.000000000000000000, -1.000000000000000000 ) ) ;
#85 = DIRECTION ( 'NONE',  ( -1.000000000000000000, -0.000000000000000000, -0.000000000000000000 ) ) ;
#86 = APPLICATION_CONTEXT ( 'automotive_design' ) ;
#87 = CARTESIAN_POINT ( 'NONE',  ( -8.600000000000001421, 0.000000000000000000, -0.4999999999999999445 ) ) ;
#88 = ORIENTED_EDGE ( 'NONE', *, *, #47, .F. ) ;
#89 = ORIENTED_EDGE ( 'NONE', *, *, #144, .F. ) ;
#90 = DIRECTION ( 'NONE',  ( 0.000000000000000000, 1.000000000000000000, 0.000000000000000000 ) ) ;
#91 = EDGE_LOOP ( 'NONE', ( #184, #168, #153, #133 ) ) ;
#92 = PRESENTATION_STYLE_ASSIGNMENT (( #21 ) ) ;
#93 = AXIS2_PLACEMENT_3D ( 'NONE', #75, #181, #132 ) ;
#94 = ORIENTED_EDGE ( 'NONE', *, *, #52, .T. ) ;
#95 = VECTOR ( 'NONE', #174, 100.0000000000000000 ) ;
#96 = EDGE_CURVE ( 'NONE', #117, #51, #60, .T. ) ;
#97 = CARTESIAN_POINT ( 'NONE',  ( 8.599999999999997868, 0.1999999999999996503, 0.5000000000000001110 ) ) ;
#98 = LINE ( 'NONE', #48, #163 ) ;
#99 = COLOUR_RGB ( '',0.7921568627450980005, 0.8196078431372548767, 0.9333333333333333481 ) ;
#100 = LINE ( 'NONE', #160, #1 ) ;
#101 = ADVANCED_FACE ( 'NONE', ( #141 ), #46, .F. ) ;
#102 = DIRECTION ( 'NONE',  ( 0.000000000000000000, 0.000000000000000000, 1.000000000000000000 ) ) ;
#103 =( NAMED_UNIT ( * ) SI_UNIT ( $, .STERADIAN. ) SOLID_ANGLE_UNIT ( ) );
#104 = VERTEX_POINT ( 'NONE', #18 ) ;
#105 = FILL_AREA_STYLE ('',( #43 ) ) ;
#106 = ORIENTED_EDGE ( 'NONE', *, *, #123, .T. ) ;
#107 = SURFACE_SIDE_STYLE ('',( #169 ) ) ;
#108 = EDGE_CURVE ( 'NONE', #54, #104, #71, .T. ) ;
#109 = ORIENTED_EDGE ( 'NONE', *, *, #68, .T. ) ;
#110 = LINE ( 'NONE', #4, #83 ) ;
#111 = CARTESIAN_POINT ( 'NONE',  ( -8.600000000000001421, 0.1999999999999996503, 0.5000000000000001110 ) ) ;
#112 = DIRECTION ( 'NONE',  ( -0.000000000000000000, -1.000000000000000000, -0.000000000000000000 ) ) ;
#113 = DIRECTION ( 'NONE',  ( 0.000000000000000000, 0.000000000000000000, 1.000000000000000000 ) ) ;
#114 = PLANE ( 'NONE',  #142 ) ;
#115 = UNCERTAINTY_MEASURE_WITH_UNIT (LENGTH_MEASURE( 1.000000000000000082E-05 ), #9, 'distance_accuracy_value', 'NONE');
#116 =( NAMED_UNIT ( * ) PLANE_ANGLE_UNIT ( ) SI_UNIT ( $, .RADIAN. ) );
#117 = VERTEX_POINT ( 'NONE', #87 ) ;
#118 = EDGE_LOOP ( 'NONE', ( #22, #89, #122, #94 ) ) ;
#119 = PRODUCT_DEFINITION_SHAPE ( 'NONE', 'NONE',  #178 ) ;
#120 = EDGE_CURVE ( 'NONE', #76, #62, #128, .T. ) ;
#121 =( LENGTH_UNIT ( ) NAMED_UNIT ( * ) SI_UNIT ( .CENTI., .METRE. ) );
#122 = ORIENTED_EDGE ( 'NONE', *, *, #120, .F. ) ;
#123 = EDGE_CURVE ( 'NONE', #131, #117, #3, .T. ) ;
#124 = CARTESIAN_POINT ( 'NONE',  ( -8.600000000000001421, 0.1999999999999996503, 0.5000000000000001110 ) ) ;
#125 = VECTOR ( 'NONE', #147, 100.0000000000000000 ) ;
#126 = DIRECTION ( 'NONE',  ( 1.000000000000000000, 0.000000000000000000, -0.000000000000000000 ) ) ;
#127 = PLANE ( 'NONE',  #29 ) ;
#128 = LINE ( 'NONE', #30, #13 ) ;
#129 = DIRECTION ( 'NONE',  ( 1.000000000000000000, 0.000000000000000000, 0.000000000000000000 ) ) ;
#130 = ADVANCED_FACE ( 'NONE', ( #6 ), #114, .F. ) ;
#131 = VERTEX_POINT ( 'NONE', #145 ) ;
#132 = DIRECTION ( 'NONE',  ( 1.000000000000000000, 0.000000000000000000, 0.000000000000000000 ) ) ;
#133 = ORIENTED_EDGE ( 'NONE', *, *, #68, .F. ) ;
#134 = VECTOR ( 'NONE', #113, 100.0000000000000000 ) ;
#135 = APPLICATION_PROTOCOL_DEFINITION ( 'draft international standard', 'automotive_design', 1998, #86 ) ;
#136 = DIRECTION ( 'NONE',  ( 0.000000000000000000, 1.000000000000000000, 0.000000000000000000 ) ) ;
#137 = EDGE_CURVE ( 'NONE', #51, #54, #110, .T. ) ;
#138 = ORIENTED_EDGE ( 'NONE', *, *, #157, .F. ) ;
#139 = PRODUCT_DEFINITION_FORMATION_WITH_SPECIFIED_SOURCE ( 'ANY', '', #81, .NOT_KNOWN. ) ;
#140 = CARTESIAN_POINT ( 'NONE',  ( -8.600000000000001421, 0.000000000000000000, -0.4999999999999999445 ) ) ;
#141 = FACE_OUTER_BOUND ( 'NONE', #118, .T. ) ;
#142 = AXIS2_PLACEMENT_3D ( 'NONE', #2, #179, #14 ) ;
#143 = AXIS2_PLACEMENT_3D ( 'NONE', #155, #90, #7 ) ;
#144 = EDGE_CURVE ( 'NONE', #62, #54, #98, .T. ) ;
#145 = CARTESIAN_POINT ( 'NONE',  ( -8.600000000000001421, 0.1999999999999996503, -0.4999999999999999445 ) ) ;
#146 = DIRECTION ( 'NONE',  ( 0.000000000000000000, 0.000000000000000000, 1.000000000000000000 ) ) ;
#147 = DIRECTION ( 'NONE',  ( -0.000000000000000000, -0.000000000000000000, -1.000000000000000000 ) ) ;
#148 = AXIS2_PLACEMENT_3D ( 'NONE', #20, #136, #35 ) ;
#149 = ORIENTED_EDGE ( 'NONE', *, *, #25, .T. ) ;
#150 =( NAMED_UNIT ( * ) SI_UNIT ( $, .STERADIAN. ) SOLID_ANGLE_UNIT ( ) );
#151 = ORIENTED_EDGE ( 'NONE', *, *, #47, .T. ) ;
#152 = PRODUCT_CONTEXT ( 'NONE', #78, 'mechanical' ) ;
#153 = ORIENTED_EDGE ( 'NONE', *, *, #96, .F. ) ;
#154 =( GEOMETRIC_REPRESENTATION_CONTEXT ( 3 ) GLOBAL_UNCERTAINTY_ASSIGNED_CONTEXT ( ( #158 ) ) GLOBAL_UNIT_ASSIGNED_CONTEXT ( ( #121, #116, #103 ) ) REPRESENTATION_CONTEXT ( 'NONE', 'WORKASPACE' ) );
#155 = CARTESIAN_POINT ( 'NONE',  ( 0.000000000000000000, 0.1999999999999996503, 0.000000000000000000 ) ) ;
#156 = PLANE ( 'NONE',  #167 ) ;
#157 = EDGE_CURVE ( 'NONE', #172, #104, #100, .T. ) ;
#158 = UNCERTAINTY_MEASURE_WITH_UNIT (LENGTH_MEASURE( 1.000000000000000082E-05 ), #121, 'distance_accuracy_value', 'NONE');
#159 = PRESENTATION_LAYER_ASSIGNMENT (  '', '', ( #173 ) ) ;
#160 = CARTESIAN_POINT ( 'NONE',  ( 8.599999999999997868, 0.1999999999999996503, -0.4999999999999999445 ) ) ;
#161 = LINE ( 'NONE', #162, #182 ) ;
#162 = CARTESIAN_POINT ( 'NONE',  ( -8.600000000000001421, 0.1999999999999996503, -0.4999999999999999445 ) ) ;
#163 = VECTOR ( 'NONE', #112, 100.0000000000000000 ) ;
#164 = DIRECTION ( 'NONE',  ( -0.000000000000000000, -1.000000000000000000, -0.000000000000000000 ) ) ;
#165 = PRODUCT_DEFINITION_CONTEXT ( 'detailed design', #86, 'design' ) ;
#166 = CARTESIAN_POINT ( 'NONE',  ( -8.600000000000001421, 0.1999999999999996503, 0.5000000000000001110 ) ) ;
#167 = AXIS2_PLACEMENT_3D ( 'NONE', #66, #146, #126 ) ;
#168 = ORIENTED_EDGE ( 'NONE', *, *, #137, .F. ) ;
#169 = SURFACE_STYLE_FILL_AREA ( #105 ) ;
#170 = ORIENTED_EDGE ( 'NONE', *, *, #65, .F. ) ;
#171 = ORIENTED_EDGE ( 'NONE', *, *, #108, .T. ) ;
#172 = VERTEX_POINT ( 'NONE', #82 ) ;
#173 = STYLED_ITEM ( 'NONE', ( #92 ), #180 ) ;
#174 = DIRECTION ( 'NONE',  ( -1.000000000000000000, -0.000000000000000000, -0.000000000000000000 ) ) ;
#175 = CARTESIAN_POINT ( 'NONE',  ( 8.599999999999997868, 0.1999999999999996503, -0.4999999999999999445 ) ) ;
#176 = CARTESIAN_POINT ( 'NONE',  ( 8.599999999999997868, 0.1999999999999996503, -0.4999999999999999445 ) ) ;
#177 = CARTESIAN_POINT ( 'NONE',  ( 8.599999999999997868, 0.000000000000000000, 0.5000000000000001110 ) ) ;
#178 = PRODUCT_DEFINITION ( 'UNKNOWN', '', #139, #165 ) ;
#179 = DIRECTION ( 'NONE',  ( 1.000000000000000000, 0.000000000000000000, 0.000000000000000000 ) ) ;
#180 = MANIFOLD_SOLID_BREP ( 'Boss-Extrude1', #56 ) ;
#181 = DIRECTION ( 'NONE',  ( 0.000000000000000000, 0.000000000000000000, 1.000000000000000000 ) ) ;
#182 = VECTOR ( 'NONE', #19, 100.0000000000000000 ) ;
#183 = ADVANCED_FACE ( 'NONE', ( #49 ), #57, .T. ) ;
#184 = ORIENTED_EDGE ( 'NONE', *, *, #108, .F. ) ;
#185 = FACE_OUTER_BOUND ( 'NONE', #91, .T. ) ;
#186 = ADVANCED_FACE ( 'NONE', ( #185 ), #24, .F. ) ;
#187 = ORIENTED_EDGE ( 'NONE', *, *, #157, .T. ) ;
ENDSEC;
END-ISO-10303-21;
